<mxfile host="app.diagrams.net" modified="2022-06-14T09:55:07.927Z" agent="5.0 (Windows NT 10.0; Win64; x64) AppleWebKit/537.36 (KHTML, like Gecko) Chrome/102.0.5005.63 Safari/537.36" etag="6hZBqPBkimykPYvQH5Si" version="19.0.0" type="github">
  <diagram id="C5RBs43oDa-KdzZeNtuy" name="Page-1">
    <mxGraphModel dx="1422" dy="762" grid="1" gridSize="10" guides="1" tooltips="1" connect="1" arrows="1" fold="1" page="1" pageScale="1" pageWidth="827" pageHeight="1169" math="0" shadow="0">
      <root>
        <mxCell id="WIyWlLk6GJQsqaUBKTNV-0" />
        <mxCell id="WIyWlLk6GJQsqaUBKTNV-1" parent="WIyWlLk6GJQsqaUBKTNV-0" />
        <mxCell id="dx6Y7Uj7GbP5ftQ25rFw-4" value="START" style="ellipse;whiteSpace=wrap;html=1;aspect=fixed;" vertex="1" parent="WIyWlLk6GJQsqaUBKTNV-1">
          <mxGeometry x="10" y="30" width="80" height="80" as="geometry" />
        </mxCell>
        <mxCell id="dx6Y7Uj7GbP5ftQ25rFw-6" value="" style="endArrow=classic;html=1;rounded=0;exitX=1.025;exitY=0.6;exitDx=0;exitDy=0;exitPerimeter=0;" edge="1" parent="WIyWlLk6GJQsqaUBKTNV-1" source="dx6Y7Uj7GbP5ftQ25rFw-4" target="dx6Y7Uj7GbP5ftQ25rFw-7">
          <mxGeometry width="50" height="50" relative="1" as="geometry">
            <mxPoint x="390" y="420" as="sourcePoint" />
            <mxPoint x="200" y="78" as="targetPoint" />
          </mxGeometry>
        </mxCell>
        <mxCell id="dx6Y7Uj7GbP5ftQ25rFw-7" value="Draw the initial board" style="ellipse;whiteSpace=wrap;html=1;" vertex="1" parent="WIyWlLk6GJQsqaUBKTNV-1">
          <mxGeometry x="160" y="38" width="120" height="80" as="geometry" />
        </mxCell>
        <mxCell id="dx6Y7Uj7GbP5ftQ25rFw-8" value="" style="endArrow=classic;html=1;rounded=0;exitX=1;exitY=0.5;exitDx=0;exitDy=0;" edge="1" parent="WIyWlLk6GJQsqaUBKTNV-1" source="dx6Y7Uj7GbP5ftQ25rFw-7" target="dx6Y7Uj7GbP5ftQ25rFw-9">
          <mxGeometry width="50" height="50" relative="1" as="geometry">
            <mxPoint x="390" y="270" as="sourcePoint" />
            <mxPoint x="370" y="78" as="targetPoint" />
          </mxGeometry>
        </mxCell>
        <mxCell id="dx6Y7Uj7GbP5ftQ25rFw-9" value="Wait for input" style="whiteSpace=wrap;html=1;aspect=fixed;" vertex="1" parent="WIyWlLk6GJQsqaUBKTNV-1">
          <mxGeometry x="350" y="38" width="80" height="80" as="geometry" />
        </mxCell>
        <mxCell id="dx6Y7Uj7GbP5ftQ25rFw-10" value="" style="endArrow=none;html=1;rounded=0;exitX=1;exitY=0.5;exitDx=0;exitDy=0;" edge="1" parent="WIyWlLk6GJQsqaUBKTNV-1" source="dx6Y7Uj7GbP5ftQ25rFw-9" target="dx6Y7Uj7GbP5ftQ25rFw-11">
          <mxGeometry width="50" height="50" relative="1" as="geometry">
            <mxPoint x="390" y="270" as="sourcePoint" />
            <mxPoint x="540" y="78" as="targetPoint" />
          </mxGeometry>
        </mxCell>
        <mxCell id="dx6Y7Uj7GbP5ftQ25rFw-11" value="LMB pressed?" style="rhombus;whiteSpace=wrap;html=1;" vertex="1" parent="WIyWlLk6GJQsqaUBKTNV-1">
          <mxGeometry x="570" y="38" width="80" height="80" as="geometry" />
        </mxCell>
        <mxCell id="dx6Y7Uj7GbP5ftQ25rFw-12" value="" style="endArrow=classic;html=1;rounded=0;" edge="1" parent="WIyWlLk6GJQsqaUBKTNV-1" source="dx6Y7Uj7GbP5ftQ25rFw-11">
          <mxGeometry width="50" height="50" relative="1" as="geometry">
            <mxPoint x="390" y="260" as="sourcePoint" />
            <mxPoint x="680" y="150" as="targetPoint" />
          </mxGeometry>
        </mxCell>
        <mxCell id="dx6Y7Uj7GbP5ftQ25rFw-13" value="Yes" style="ellipse;whiteSpace=wrap;html=1;" vertex="1" parent="WIyWlLk6GJQsqaUBKTNV-1">
          <mxGeometry x="640" y="150" width="120" height="80" as="geometry" />
        </mxCell>
        <mxCell id="dx6Y7Uj7GbP5ftQ25rFw-14" value="" style="endArrow=classic;html=1;rounded=0;entryX=0.817;entryY=0.05;entryDx=0;entryDy=0;entryPerimeter=0;" edge="1" parent="WIyWlLk6GJQsqaUBKTNV-1" source="dx6Y7Uj7GbP5ftQ25rFw-11" target="dx6Y7Uj7GbP5ftQ25rFw-36">
          <mxGeometry width="50" height="50" relative="1" as="geometry">
            <mxPoint x="390" y="260" as="sourcePoint" />
            <mxPoint x="530" y="160" as="targetPoint" />
          </mxGeometry>
        </mxCell>
        <mxCell id="dx6Y7Uj7GbP5ftQ25rFw-15" value="" style="endArrow=classic;html=1;rounded=0;exitX=0.217;exitY=0.988;exitDx=0;exitDy=0;exitPerimeter=0;entryX=1;entryY=0;entryDx=0;entryDy=0;" edge="1" parent="WIyWlLk6GJQsqaUBKTNV-1" source="dx6Y7Uj7GbP5ftQ25rFw-13" target="dx6Y7Uj7GbP5ftQ25rFw-16">
          <mxGeometry width="50" height="50" relative="1" as="geometry">
            <mxPoint x="390" y="260" as="sourcePoint" />
            <mxPoint x="630" y="280" as="targetPoint" />
          </mxGeometry>
        </mxCell>
        <mxCell id="dx6Y7Uj7GbP5ftQ25rFw-16" value="In the menu zone?" style="rhombus;whiteSpace=wrap;html=1;" vertex="1" parent="WIyWlLk6GJQsqaUBKTNV-1">
          <mxGeometry x="560" y="260" width="80" height="80" as="geometry" />
        </mxCell>
        <mxCell id="dx6Y7Uj7GbP5ftQ25rFw-17" value="" style="endArrow=classic;html=1;rounded=0;exitX=0;exitY=0.5;exitDx=0;exitDy=0;" edge="1" parent="WIyWlLk6GJQsqaUBKTNV-1" source="dx6Y7Uj7GbP5ftQ25rFw-16">
          <mxGeometry width="50" height="50" relative="1" as="geometry">
            <mxPoint x="390" y="350" as="sourcePoint" />
            <mxPoint x="460" y="300" as="targetPoint" />
          </mxGeometry>
        </mxCell>
        <mxCell id="dx6Y7Uj7GbP5ftQ25rFw-18" value="No" style="ellipse;whiteSpace=wrap;html=1;" vertex="1" parent="WIyWlLk6GJQsqaUBKTNV-1">
          <mxGeometry x="340" y="260" width="120" height="80" as="geometry" />
        </mxCell>
        <mxCell id="dx6Y7Uj7GbP5ftQ25rFw-19" value="" style="endArrow=classic;html=1;rounded=0;exitX=0.5;exitY=1;exitDx=0;exitDy=0;" edge="1" parent="WIyWlLk6GJQsqaUBKTNV-1" source="dx6Y7Uj7GbP5ftQ25rFw-16">
          <mxGeometry width="50" height="50" relative="1" as="geometry">
            <mxPoint x="630" y="410" as="sourcePoint" />
            <mxPoint x="600" y="400" as="targetPoint" />
          </mxGeometry>
        </mxCell>
        <mxCell id="dx6Y7Uj7GbP5ftQ25rFw-20" value="Get pixel color" style="ellipse;whiteSpace=wrap;html=1;" vertex="1" parent="WIyWlLk6GJQsqaUBKTNV-1">
          <mxGeometry x="540" y="400" width="120" height="80" as="geometry" />
        </mxCell>
        <mxCell id="dx6Y7Uj7GbP5ftQ25rFw-21" value="" style="endArrow=classic;html=1;rounded=0;exitX=0;exitY=0.625;exitDx=0;exitDy=0;exitPerimeter=0;" edge="1" parent="WIyWlLk6GJQsqaUBKTNV-1" source="dx6Y7Uj7GbP5ftQ25rFw-18">
          <mxGeometry width="50" height="50" relative="1" as="geometry">
            <mxPoint x="390" y="450" as="sourcePoint" />
            <mxPoint x="260" y="310" as="targetPoint" />
          </mxGeometry>
        </mxCell>
        <mxCell id="dx6Y7Uj7GbP5ftQ25rFw-22" value="Are you using the square Brush?" style="rhombus;whiteSpace=wrap;html=1;" vertex="1" parent="WIyWlLk6GJQsqaUBKTNV-1">
          <mxGeometry x="180" y="270" width="80" height="80" as="geometry" />
        </mxCell>
        <mxCell id="dx6Y7Uj7GbP5ftQ25rFw-23" value="" style="endArrow=classic;html=1;rounded=0;" edge="1" parent="WIyWlLk6GJQsqaUBKTNV-1" source="dx6Y7Uj7GbP5ftQ25rFw-22">
          <mxGeometry width="50" height="50" relative="1" as="geometry">
            <mxPoint x="390" y="440" as="sourcePoint" />
            <mxPoint x="100" y="310" as="targetPoint" />
          </mxGeometry>
        </mxCell>
        <mxCell id="dx6Y7Uj7GbP5ftQ25rFw-24" value="No" style="ellipse;whiteSpace=wrap;html=1;" vertex="1" parent="WIyWlLk6GJQsqaUBKTNV-1">
          <mxGeometry x="10" y="270" width="90" height="80" as="geometry" />
        </mxCell>
        <mxCell id="dx6Y7Uj7GbP5ftQ25rFw-25" value="" style="endArrow=classic;html=1;rounded=0;exitX=0.5;exitY=1;exitDx=0;exitDy=0;" edge="1" parent="WIyWlLk6GJQsqaUBKTNV-1" source="dx6Y7Uj7GbP5ftQ25rFw-24">
          <mxGeometry width="50" height="50" relative="1" as="geometry">
            <mxPoint x="390" y="440" as="sourcePoint" />
            <mxPoint x="55" y="420" as="targetPoint" />
          </mxGeometry>
        </mxCell>
        <mxCell id="dx6Y7Uj7GbP5ftQ25rFw-26" value="P" style="swimlane;startSize=0;" vertex="1" parent="WIyWlLk6GJQsqaUBKTNV-1">
          <mxGeometry x="15" y="420" width="85" height="80" as="geometry" />
        </mxCell>
        <mxCell id="dx6Y7Uj7GbP5ftQ25rFw-27" value="Paint the pixel" style="text;html=1;align=center;verticalAlign=middle;resizable=0;points=[];autosize=1;strokeColor=none;fillColor=none;" vertex="1" parent="dx6Y7Uj7GbP5ftQ25rFw-26">
          <mxGeometry x="-5" y="30" width="90" height="20" as="geometry" />
        </mxCell>
        <mxCell id="dx6Y7Uj7GbP5ftQ25rFw-28" value="" style="endArrow=classic;html=1;rounded=0;exitX=1.111;exitY=0.5;exitDx=0;exitDy=0;exitPerimeter=0;" edge="1" parent="WIyWlLk6GJQsqaUBKTNV-1" source="dx6Y7Uj7GbP5ftQ25rFw-27">
          <mxGeometry width="50" height="50" relative="1" as="geometry">
            <mxPoint x="390" y="440" as="sourcePoint" />
            <mxPoint x="390" y="460" as="targetPoint" />
          </mxGeometry>
        </mxCell>
        <mxCell id="dx6Y7Uj7GbP5ftQ25rFw-29" value="" style="endArrow=classic;html=1;rounded=0;" edge="1" parent="WIyWlLk6GJQsqaUBKTNV-1">
          <mxGeometry width="50" height="50" relative="1" as="geometry">
            <mxPoint x="390" y="460" as="sourcePoint" />
            <mxPoint x="280" y="220" as="targetPoint" />
          </mxGeometry>
        </mxCell>
        <mxCell id="dx6Y7Uj7GbP5ftQ25rFw-30" value="" style="endArrow=classic;html=1;rounded=0;entryX=0;entryY=1;entryDx=0;entryDy=0;" edge="1" parent="WIyWlLk6GJQsqaUBKTNV-1" target="dx6Y7Uj7GbP5ftQ25rFw-9">
          <mxGeometry width="50" height="50" relative="1" as="geometry">
            <mxPoint x="280" y="220" as="sourcePoint" />
            <mxPoint x="440" y="390" as="targetPoint" />
          </mxGeometry>
        </mxCell>
        <mxCell id="dx6Y7Uj7GbP5ftQ25rFw-31" value="" style="endArrow=classic;html=1;rounded=0;" edge="1" parent="WIyWlLk6GJQsqaUBKTNV-1" target="dx6Y7Uj7GbP5ftQ25rFw-32">
          <mxGeometry width="50" height="50" relative="1" as="geometry">
            <mxPoint x="380" y="120" as="sourcePoint" />
            <mxPoint x="380" y="170" as="targetPoint" />
          </mxGeometry>
        </mxCell>
        <mxCell id="dx6Y7Uj7GbP5ftQ25rFw-32" value="Esc" style="ellipse;whiteSpace=wrap;html=1;" vertex="1" parent="WIyWlLk6GJQsqaUBKTNV-1">
          <mxGeometry x="330" y="170" width="90" height="60" as="geometry" />
        </mxCell>
        <mxCell id="dx6Y7Uj7GbP5ftQ25rFw-34" value="" style="endArrow=classic;html=1;rounded=0;exitX=0;exitY=0.5;exitDx=0;exitDy=0;" edge="1" parent="WIyWlLk6GJQsqaUBKTNV-1" source="dx6Y7Uj7GbP5ftQ25rFw-32">
          <mxGeometry width="50" height="50" relative="1" as="geometry">
            <mxPoint x="390" y="140" as="sourcePoint" />
            <mxPoint x="210" y="200" as="targetPoint" />
          </mxGeometry>
        </mxCell>
        <mxCell id="dx6Y7Uj7GbP5ftQ25rFw-35" value="Exit Program" style="ellipse;whiteSpace=wrap;html=1;aspect=fixed;" vertex="1" parent="WIyWlLk6GJQsqaUBKTNV-1">
          <mxGeometry x="130" y="160" width="80" height="80" as="geometry" />
        </mxCell>
        <mxCell id="dx6Y7Uj7GbP5ftQ25rFw-36" value="No" style="ellipse;whiteSpace=wrap;html=1;" vertex="1" parent="WIyWlLk6GJQsqaUBKTNV-1">
          <mxGeometry x="440" y="160" width="120" height="80" as="geometry" />
        </mxCell>
        <mxCell id="dx6Y7Uj7GbP5ftQ25rFw-37" value="" style="endArrow=classic;html=1;rounded=0;entryX=1;entryY=1;entryDx=0;entryDy=0;" edge="1" parent="WIyWlLk6GJQsqaUBKTNV-1" source="dx6Y7Uj7GbP5ftQ25rFw-36" target="dx6Y7Uj7GbP5ftQ25rFw-9">
          <mxGeometry width="50" height="50" relative="1" as="geometry">
            <mxPoint x="390" y="140" as="sourcePoint" />
            <mxPoint x="440" y="90" as="targetPoint" />
          </mxGeometry>
        </mxCell>
        <mxCell id="dx6Y7Uj7GbP5ftQ25rFw-38" value="" style="endArrow=classic;html=1;rounded=0;exitX=0.5;exitY=1;exitDx=0;exitDy=0;" edge="1" parent="WIyWlLk6GJQsqaUBKTNV-1" source="dx6Y7Uj7GbP5ftQ25rFw-20">
          <mxGeometry width="50" height="50" relative="1" as="geometry">
            <mxPoint x="390" y="540" as="sourcePoint" />
            <mxPoint x="600" y="510" as="targetPoint" />
          </mxGeometry>
        </mxCell>
        <mxCell id="dx6Y7Uj7GbP5ftQ25rFw-39" value="What color?" style="rhombus;whiteSpace=wrap;html=1;" vertex="1" parent="WIyWlLk6GJQsqaUBKTNV-1">
          <mxGeometry x="560" y="505" width="80" height="80" as="geometry" />
        </mxCell>
        <mxCell id="dx6Y7Uj7GbP5ftQ25rFw-40" value="Background" style="endArrow=classic;html=1;rounded=0;" edge="1" parent="WIyWlLk6GJQsqaUBKTNV-1" source="dx6Y7Uj7GbP5ftQ25rFw-39">
          <mxGeometry width="50" height="50" relative="1" as="geometry">
            <mxPoint x="390" y="440" as="sourcePoint" />
            <mxPoint x="520" y="610" as="targetPoint" />
          </mxGeometry>
        </mxCell>
        <mxCell id="dx6Y7Uj7GbP5ftQ25rFw-41" value="Grey" style="endArrow=classic;html=1;rounded=0;" edge="1" parent="WIyWlLk6GJQsqaUBKTNV-1" source="dx6Y7Uj7GbP5ftQ25rFw-39">
          <mxGeometry width="50" height="50" relative="1" as="geometry">
            <mxPoint x="600" y="620" as="sourcePoint" />
            <mxPoint x="670" y="610" as="targetPoint" />
          </mxGeometry>
        </mxCell>
        <mxCell id="dx6Y7Uj7GbP5ftQ25rFw-43" value="Change Brush; wait for input." style="whiteSpace=wrap;html=1;aspect=fixed;" vertex="1" parent="WIyWlLk6GJQsqaUBKTNV-1">
          <mxGeometry x="670" y="610" width="80" height="80" as="geometry" />
        </mxCell>
        <mxCell id="dx6Y7Uj7GbP5ftQ25rFw-44" value="Do nothing; wait for input." style="whiteSpace=wrap;html=1;aspect=fixed;" vertex="1" parent="WIyWlLk6GJQsqaUBKTNV-1">
          <mxGeometry x="460" y="610" width="80" height="80" as="geometry" />
        </mxCell>
        <mxCell id="dx6Y7Uj7GbP5ftQ25rFw-45" value="Other" style="endArrow=classic;html=1;rounded=0;exitX=0.5;exitY=1;exitDx=0;exitDy=0;" edge="1" parent="WIyWlLk6GJQsqaUBKTNV-1" source="dx6Y7Uj7GbP5ftQ25rFw-39">
          <mxGeometry width="50" height="50" relative="1" as="geometry">
            <mxPoint x="390" y="410" as="sourcePoint" />
            <mxPoint x="600" y="720" as="targetPoint" />
          </mxGeometry>
        </mxCell>
        <mxCell id="dx6Y7Uj7GbP5ftQ25rFw-46" value="Change brush color, wait for input." style="whiteSpace=wrap;html=1;aspect=fixed;" vertex="1" parent="WIyWlLk6GJQsqaUBKTNV-1">
          <mxGeometry x="560" y="720" width="80" height="80" as="geometry" />
        </mxCell>
        <mxCell id="dx6Y7Uj7GbP5ftQ25rFw-47" value="" style="endArrow=classic;html=1;rounded=0;exitX=0.5;exitY=1;exitDx=0;exitDy=0;" edge="1" parent="WIyWlLk6GJQsqaUBKTNV-1" source="dx6Y7Uj7GbP5ftQ25rFw-22">
          <mxGeometry width="50" height="50" relative="1" as="geometry">
            <mxPoint x="390" y="600" as="sourcePoint" />
            <mxPoint x="220" y="410" as="targetPoint" />
          </mxGeometry>
        </mxCell>
        <mxCell id="dx6Y7Uj7GbP5ftQ25rFw-48" value="Yes." style="ellipse;whiteSpace=wrap;html=1;" vertex="1" parent="WIyWlLk6GJQsqaUBKTNV-1">
          <mxGeometry x="190" y="410" width="60" height="40" as="geometry" />
        </mxCell>
        <mxCell id="dx6Y7Uj7GbP5ftQ25rFw-49" value="" style="endArrow=classic;html=1;rounded=0;exitX=0.5;exitY=1;exitDx=0;exitDy=0;" edge="1" parent="WIyWlLk6GJQsqaUBKTNV-1" source="dx6Y7Uj7GbP5ftQ25rFw-48">
          <mxGeometry width="50" height="50" relative="1" as="geometry">
            <mxPoint x="390" y="600" as="sourcePoint" />
            <mxPoint x="220" y="540" as="targetPoint" />
          </mxGeometry>
        </mxCell>
        <mxCell id="dx6Y7Uj7GbP5ftQ25rFw-50" value="Save mouse location,&lt;br&gt;wait for the mouse button release." style="ellipse;whiteSpace=wrap;html=1;" vertex="1" parent="WIyWlLk6GJQsqaUBKTNV-1">
          <mxGeometry x="160" y="540" width="120" height="80" as="geometry" />
        </mxCell>
        <mxCell id="dx6Y7Uj7GbP5ftQ25rFw-51" value="Release" style="endArrow=classic;html=1;rounded=0;exitX=0.5;exitY=1;exitDx=0;exitDy=0;" edge="1" parent="WIyWlLk6GJQsqaUBKTNV-1" source="dx6Y7Uj7GbP5ftQ25rFw-50">
          <mxGeometry width="50" height="50" relative="1" as="geometry">
            <mxPoint x="390" y="480" as="sourcePoint" />
            <mxPoint x="220" y="690" as="targetPoint" />
          </mxGeometry>
        </mxCell>
        <mxCell id="dx6Y7Uj7GbP5ftQ25rFw-52" value="End location smaller than beggining one?" style="rhombus;whiteSpace=wrap;html=1;" vertex="1" parent="WIyWlLk6GJQsqaUBKTNV-1">
          <mxGeometry x="180" y="690" width="80" height="80" as="geometry" />
        </mxCell>
        <mxCell id="dx6Y7Uj7GbP5ftQ25rFw-53" value="Yes" style="endArrow=classic;html=1;rounded=0;" edge="1" parent="WIyWlLk6GJQsqaUBKTNV-1" source="dx6Y7Uj7GbP5ftQ25rFw-52">
          <mxGeometry width="50" height="50" relative="1" as="geometry">
            <mxPoint x="390" y="960" as="sourcePoint" />
            <mxPoint x="290" y="810" as="targetPoint" />
          </mxGeometry>
        </mxCell>
        <mxCell id="dx6Y7Uj7GbP5ftQ25rFw-54" value="No" style="endArrow=classic;html=1;rounded=0;" edge="1" parent="WIyWlLk6GJQsqaUBKTNV-1" source="dx6Y7Uj7GbP5ftQ25rFw-52">
          <mxGeometry width="50" height="50" relative="1" as="geometry">
            <mxPoint x="390" y="960" as="sourcePoint" />
            <mxPoint x="160" y="800" as="targetPoint" />
          </mxGeometry>
        </mxCell>
        <mxCell id="dx6Y7Uj7GbP5ftQ25rFw-57" value="Draw square starting with the beggining values and end with the end values, then, await input." style="whiteSpace=wrap;html=1;aspect=fixed;" vertex="1" parent="WIyWlLk6GJQsqaUBKTNV-1">
          <mxGeometry x="30" y="800" width="130" height="130" as="geometry" />
        </mxCell>
        <mxCell id="dx6Y7Uj7GbP5ftQ25rFw-58" value="Flip beggining and end values, draw the square, then, await input." style="whiteSpace=wrap;html=1;aspect=fixed;" vertex="1" parent="WIyWlLk6GJQsqaUBKTNV-1">
          <mxGeometry x="290" y="810" width="120" height="120" as="geometry" />
        </mxCell>
      </root>
    </mxGraphModel>
  </diagram>
</mxfile>
